# xmcd CD database file
#
# Track frame offsets:
#	150
#	21465
#	38788
#	55124
#	77063
#	97937
#	120513
#	138578
#	161471
#	182421
#	199007
#	216351
#
# Disc length: 3123 seconds
#
# Revision: 0
# Processed by: cddbd v1.5.2PL0 Copyright (c) Steve Scherf et al.
# Submitted via: CDex 1.51
#
DISCID=9c0c310c
DTITLE=BO.DA' - Madonna in Jazz
DYEAR=2007
DGENRE=Jazz
TTITLE0=La Isla Bonita
TTITLE1=Holiday
TTITLE2=Into The Groove
TTITLE3=Frozen
TTITLE4=Material Girl
TTITLE5=Paradise Is Not For Me
TTITLE6=La Castidad
TTITLE7=Papa Don't Preach
TTITLE8=Impressive Instant
TTITLE9=Music
TTITLE10=Like A Virgin
TTITLE11=La Castidad (Scat Vocal Edit)
EXTD=YEAR: 2007
EXTT0=
EXTT1=
EXTT2=
EXTT3=
EXTT4=
EXTT5=
EXTT6=
EXTT7=
EXTT8=
EXTT9=
EXTT10=
EXTT11=
PLAYORDER=
